<?xml version="1.0" encoding="UTF-8" standalone="no"?>
<!DOCTYPE svg PUBLIC "-//W3C//DTD SVG 1.1//EN" "http://www.w3.org/Graphics/SVG/1.1/DTD/svg11.dtd">
<svg width="100%" height="100%" viewBox="0 0 277 286" version="1.1" xmlns="http://www.w3.org/2000/svg" xmlns:xlink="http://www.w3.org/1999/xlink" xml:space="preserve" xmlns:serif="http://www.serif.com/" style="fill-rule:evenodd;clip-rule:evenodd;stroke-linejoin:round;stroke-miterlimit:1.41421;">
    <g transform="matrix(1,0,0,1,-113.64,-55.3137)">
        <g>
            <g transform="matrix(1,0,0,1,114.26,221.731)">
                <path d="M0,-47.887C12.085,-42.908 21.677,-42.738 21.677,-42.738C13.515,-43.895 6.194,-47.771 0.395,-51.942C2.648,-72.7 8.93,-93.774 21.74,-112.999C39.984,-101.175 56.025,-98.33 56.025,-98.33C43.561,-102.177 33.199,-110.124 25.333,-118.103C25.724,-118.63 26.106,-119.159 26.508,-119.683C27.846,-121.43 29.232,-123.109 30.651,-124.739C36.93,-117.641 42.352,-114.144 42.352,-114.144C38.12,-117.715 34.829,-122.047 32.27,-126.546C50.245,-146.244 74.085,-157.189 98.622,-162.429C99.555,-146.669 105.323,-136.276 105.323,-136.276C101.785,-145.347 102.158,-155.235 103.66,-163.423C129.578,-168.137 155.863,-166.769 176.464,-162.888C172.527,-154.311 172.312,-147.531 172.312,-147.531C173.257,-153.165 176.179,-158.226 179.395,-162.313C181.15,-161.953 182.857,-161.575 184.516,-161.181C176.323,-150.709 174.976,-140.649 174.976,-140.649C177.324,-149.183 184.23,-155.926 189.364,-159.949C196.055,-158.131 201.75,-156.071 206.116,-153.96C219.291,-147.589 231.988,-139.85 242.85,-132.557C229.58,-125.602 222.58,-117.721 222.58,-117.721C229.725,-123.923 238.747,-127.537 247.127,-129.648C249.963,-127.69 252.639,-125.788 255.141,-123.972C232.027,-118.844 218.639,-106.448 218.639,-106.448C233.722,-117.179 254.884,-117.522 264.426,-117.037C271.382,-111.688 275.527,-108.145 275.527,-108.145C247.742,-112.537 228.841,-103.672 216.687,-93.25C189.188,-113.15 152.513,-123.932 112.376,-114.253C49.048,-98.982 39.03,-35.18 39.03,-35.18C29.012,10.974 59.424,90.047 59.424,90.047C59.424,90.047 52.269,93.78 41.893,107.015C31.517,120.25 13.627,118.554 13.627,118.554C33.664,114.482 26.066,80.715 17.206,57.128C10.076,38.15 -3.702,-3.826 0,-47.887" style="fill-rule:nonzero;"/>
            </g>
            <g transform="matrix(1,0,0,1,193.481,210.842)">
                <path d="M0,-75.374C2.163,-77.059 4.261,-78.863 6.563,-80.402C8.867,-81.936 11.131,-83.555 13.579,-84.904C14.787,-85.603 15.98,-86.336 17.232,-86.965L21.018,-88.812C23.539,-90.057 26.193,-91.047 28.833,-92.058C31.519,-92.954 34.195,-93.908 36.965,-94.571C39.705,-95.352 42.523,-95.813 45.32,-96.38C48.146,-96.775 50.971,-97.248 53.83,-97.395C56.678,-97.668 59.543,-97.674 62.399,-97.71L66.688,-97.62C68.114,-97.546 69.537,-97.414 70.962,-97.31C73.802,-97.029 76.641,-96.712 79.445,-96.22C82.262,-95.79 85.051,-95.208 87.806,-94.525C90.565,-93.856 93.292,-93.08 95.99,-92.233C98.691,-91.391 101.348,-90.429 103.963,-89.383C106.579,-88.342 109.167,-87.24 111.694,-86.022C116.754,-83.591 121.632,-80.877 126.188,-77.627L126.641,-77.304L126.436,-76.862C124.927,-73.603 123.41,-70.346 121.805,-67.122C122.803,-70.364 123.881,-73.577 124.969,-76.787C122.74,-78.039 120.392,-79.171 118.055,-80.264C115.572,-81.441 113.039,-82.522 110.479,-83.53C105.378,-85.59 100.147,-87.326 94.856,-88.814C92.209,-89.551 89.542,-90.22 86.852,-90.781C84.16,-91.332 81.469,-91.886 78.749,-92.27C76.04,-92.716 73.305,-92.99 70.573,-93.232L66.468,-93.512L62.355,-93.642C59.616,-93.634 56.867,-93.661 54.137,-93.426C51.396,-93.291 48.679,-92.951 45.952,-92.656C43.254,-92.196 40.526,-91.844 37.87,-91.175C35.173,-90.654 32.543,-89.89 29.897,-89.158C28.573,-88.793 27.298,-88.293 25.993,-87.868C24.693,-87.429 23.374,-87.028 22.116,-86.486L18.287,-84.961C17.018,-84.433 15.799,-83.806 14.535,-83.258C11.989,-82.184 9.602,-80.829 7.155,-79.549C4.733,-78.233 2.42,-76.742 0,-75.374M-28.548,40.505C-28.548,40.505 -32.256,21.299 -11.147,18.584C-11.147,18.584 -15.538,-39.826 22.566,-62.394C59.26,-84.126 97.347,-73.797 125.611,-58.525L133.768,-76.578C133.768,-76.578 91.026,-115.879 24.198,-94.114C-36.083,-74.481 -43.575,2.156 -28.548,40.505" style="fill-rule:nonzero;"/>
            </g>
            <g transform="matrix(1,0,0,1,269.262,181.872)">
                <path d="M0,104.608C0.637,104.143 0.999,103.432 1.526,102.868C1.766,102.565 2.028,102.278 2.251,101.963L2.827,100.957C3.198,100.28 3.649,99.642 3.891,98.898C4.166,98.173 4.492,97.467 4.731,96.728L5.359,94.474C5.551,93.717 5.641,92.935 5.788,92.165C5.954,91.396 5.982,90.607 6.069,89.824C6.156,89.04 6.241,88.254 6.243,87.462C6.255,86.671 6.323,85.879 6.288,85.085C6.271,83.496 6.172,81.906 6.019,80.316C5.847,78.73 5.678,77.137 5.413,75.552C5.256,74.767 5.14,73.968 4.947,73.188C4.771,72.4 4.637,71.618 4.336,70.851C4.736,71.551 5.014,72.341 5.293,73.1C5.575,73.866 5.779,74.65 6.027,75.427C6.458,76.994 6.856,78.574 7.147,80.176C7.414,81.781 7.627,83.396 7.757,85.024C7.848,85.837 7.835,86.656 7.878,87.473C7.932,88.291 7.9,89.111 7.866,89.932C7.839,90.754 7.812,91.577 7.675,92.395C7.55,93.212 7.481,94.038 7.308,94.851L6.719,97.285C6.482,98.087 6.131,98.864 5.841,99.655C5.583,100.461 5.101,101.183 4.696,101.935L4.066,103.055C3.822,103.409 3.535,103.74 3.271,104.084C2.695,104.735 2.265,105.507 1.545,106.039L0.765,106.709C5.19,108.721 9.53,110.864 13.724,113.279C16.044,114.615 18.364,115.959 20.565,117.476C21.675,118.221 22.746,119.021 23.805,119.826C24.868,120.63 25.86,121.516 26.812,122.429C24.657,120.871 22.382,119.507 20.047,118.237C17.72,116.959 15.372,115.712 12.974,114.552C8.184,112.234 3.329,110 -1.543,107.876L-2.986,107.247L-1.748,106.153L0,104.608ZM-68.505,73.571C-68.505,73.571 -62.542,83.753 -13.645,61.807C-13.645,61.807 17.125,88.164 -16.507,111.807C-16.507,111.807 18.614,124.385 28.574,130.133C42.886,138.39 68.169,148.232 84.15,144.16C84.15,144.16 51.711,122.44 54.812,65.2C54.812,65.2 56.124,42.01 58.151,36.58C58.151,36.58 51.949,43.141 37.996,40.087C25.946,37.449 21.812,23.929 4.702,22.037C3.405,21.894 3.283,20.15 4.553,19.862C16.935,17.042 38.809,13.03 48.849,17.123C63.279,23.005 66.618,36.919 59.701,67.463L81.526,84.77C81.765,84.091 61.729,-2.221 59.821,-9.235C57.912,-16.248 22.611,-43.624 -20.562,-37.289C-63.734,-30.954 -95.696,25.607 -68.505,73.571" style="fill-rule:nonzero;"/>
            </g>
        </g>
    </g>
</svg>
